<svg width="24" height="24" viewBox="0 0 24 24" fill="none" xmlns="http://www.w3.org/2000/svg">
<path d="M12 17.4545C15.0124 17.4545 17.4545 15.0124 17.4545 12C17.4545 8.98749 15.0124 6.54541 12 6.54541C8.98749 6.54541 6.54541 8.98749 6.54541 12C6.54541 15.0124 8.98749 17.4545 12 17.4545Z" fill="#71D970"/>
<path d="M11.9996 3.27273C12.9034 3.27273 13.636 2.5401 13.636 1.63636C13.636 0.732625 12.9034 0 11.9996 0C11.0959 0 10.3633 0.732625 10.3633 1.63636C10.3633 2.5401 11.0959 3.27273 11.9996 3.27273Z" fill="#1C1C1E"/>
<path d="M11.9996 23.9998C12.9034 23.9998 13.636 23.2672 13.636 22.3634C13.636 21.4597 12.9034 20.7271 11.9996 20.7271C11.0959 20.7271 10.3633 21.4597 10.3633 22.3634C10.3633 23.2672 11.0959 23.9998 11.9996 23.9998Z" fill="#1C1C1E"/>
<path d="M20.7273 11.9999C20.7273 12.9036 21.4599 13.6363 22.3636 13.6363C23.2674 13.6363 24 12.9036 24 11.9999C24 11.0962 23.2674 10.3635 22.3636 10.3635C21.4599 10.3635 20.7273 11.0962 20.7273 11.9999Z" fill="#1C1C1E"/>
<path d="M0.000221252 11.9999C0.000221252 12.9036 0.732846 13.6363 1.63658 13.6363C2.54032 13.6363 3.27295 12.9036 3.27295 11.9999C3.27295 11.0962 2.54032 10.3635 1.63658 10.3635C0.732846 10.3635 0.000221252 11.0962 0.000221252 11.9999Z" fill="#1C1C1E"/>
<path d="M17.8396 5.51436C18.5113 6.11907 19.5459 6.06485 20.1506 5.39324C20.7554 4.72163 20.7011 3.68696 20.0295 3.08225C19.3579 2.47753 18.3233 2.53175 17.7185 3.20336C17.1138 3.87497 17.168 4.90964 17.8396 5.51436Z" fill="#1C1C1E"/>
<path d="M3.97051 20.9177C4.64212 21.5224 5.67679 21.4682 6.28151 20.7966C6.88622 20.125 6.832 19.0903 6.16039 18.4856C5.48878 17.8808 4.45411 17.9351 3.8494 18.6067C3.24468 19.2783 3.2989 20.313 3.97051 20.9177Z" fill="#1C1C1E"/>
<path d="M18.1713 18.171C17.5323 18.8101 17.5323 19.8462 18.1713 20.4852C18.8104 21.1242 19.8465 21.1242 20.4855 20.4852C21.1245 19.8462 21.1245 18.8101 20.4855 18.171C19.8465 17.532 18.8104 17.532 18.1713 18.171Z" fill="#1C1C1E"/>
<path d="M3.51508 3.51479C2.87604 4.15383 2.87604 5.18992 3.51508 5.82896C4.15412 6.468 5.1902 6.468 5.82924 5.82896C6.46828 5.18992 6.46828 4.15383 5.82924 3.51479C5.1902 2.87575 4.15412 2.87575 3.51508 3.51479Z" fill="#1C1C1E"/>
</svg>
