<svg width="17" height="12" viewBox="0 0 17 12" fill="inherit" xmlns="http://www.w3.org/2000/svg">
<path d="M2.73447 2.44687C2.75322 2.2625 2.68135 2.07812 2.54385 1.95312L1.13447 0.253125V0H5.51572L8.90322 7.42812L11.8813 0H16.0595V0.253125L14.8532 1.40937C14.7501 1.4875 14.697 1.61875 14.7188 1.74687V10.2469C14.697 10.375 14.7501 10.5062 14.8532 10.5844L16.0313 11.7406V11.9937H10.1032V11.7406L11.3251 10.5562C11.4438 10.4375 11.4438 10.4 11.4438 10.2187V3.35L8.04697 11.9719H7.5876L3.6376 3.35V9.12812C3.60322 9.37187 3.68447 9.61562 3.85635 9.79062L5.44385 11.7156V11.9687H0.943848V11.7187L2.53135 9.79062C2.7001 9.61562 2.77822 9.36875 2.73447 9.12812V2.44687Z" fill="inherit"/>
</svg>
