<svg width="15" height="15" viewBox="0 0 15 15" fill="inherit" xmlns="http://www.w3.org/2000/svg">
<path d="M13.2593 6.35957C12.7905 6.35957 12.378 6.55332 12.0749 6.85645C10.9593 6.08457 9.45616 5.5877 7.79054 5.53457L8.65616 1.63457L11.4124 2.25332C11.4124 2.92832 11.9624 3.47832 12.6374 3.47832C13.3249 3.47832 13.878 2.9127 13.878 2.2377C13.878 1.5627 13.328 0.99707 12.6374 0.99707C12.1562 0.99707 11.7405 1.2877 11.5343 1.68457L8.49054 1.00957C8.33741 0.968945 8.18741 1.07832 8.14679 1.23145L7.19679 5.53145C5.54366 5.6002 4.05616 6.09707 2.93741 6.86895C2.63429 6.55332 2.20616 6.35957 1.73741 6.35957C-8.83341e-05 6.35957 -0.568838 8.69082 1.02179 9.4877C0.965537 9.73457 0.940537 9.99707 0.940537 10.2596C0.940537 12.8783 3.89054 15.0002 7.51241 15.0002C11.1499 15.0002 14.0999 12.8783 14.0999 10.2596C14.0999 9.99707 14.0718 9.72207 14.003 9.4752C15.5624 8.6752 14.9874 6.35957 13.2593 6.35957ZM3.54366 9.65332C3.54366 8.96582 4.09366 8.4127 4.78429 8.4127C5.45929 8.4127 6.00929 8.9627 6.00929 9.65332C6.00929 10.3283 5.45929 10.8783 4.78429 10.8783C4.09679 10.8814 3.54366 10.3283 3.54366 9.65332ZM10.2405 12.5752C9.10304 13.7127 5.89366 13.7127 4.75616 12.5752C4.63116 12.4658 4.63116 12.2721 4.75616 12.1471C4.86554 12.0377 5.05929 12.0377 5.16866 12.1471C6.03741 13.0377 8.91866 13.0533 9.82491 12.1471C9.93429 12.0377 10.128 12.0377 10.2374 12.1471C10.3655 12.2721 10.3655 12.4658 10.2405 12.5752ZM10.2155 10.8814C9.54054 10.8814 8.99054 10.3314 8.99054 9.65645C8.99054 8.96895 9.54054 8.41582 10.2155 8.41582C10.903 8.41582 11.4562 8.96582 11.4562 9.65645C11.453 10.3283 10.903 10.8814 10.2155 10.8814Z" fill="inherit"/>
</svg>
