<svg width="17" height="14" viewBox="0 0 17 14" fill="inherit" xmlns="http://www.w3.org/2000/svg">
<path d="M14.8553 3.741C14.8655 3.88313 14.8655 4.02528 14.8655 4.16741C14.8655 8.50241 11.566 13.4973 5.53553 13.4973C3.67766 13.4973 1.95178 12.9593 0.5 12.0253C0.763969 12.0557 1.01775 12.0659 1.29187 12.0659C2.82484 12.0659 4.23603 11.5481 5.36294 10.6649C3.92131 10.6344 2.71319 9.69025 2.29694 8.39075C2.5 8.42119 2.70303 8.4415 2.91625 8.4415C3.21066 8.4415 3.50509 8.40088 3.77919 8.32985C2.27666 8.02525 1.14972 6.70547 1.14972 5.11157V5.07097C1.58625 5.31463 2.09391 5.46691 2.63194 5.48719C1.74869 4.89835 1.17003 3.89329 1.17003 2.75622C1.17003 2.1471 1.33244 1.58872 1.61672 1.10141C3.23094 3.09125 5.65734 4.39072 8.37812 4.53288C8.32737 4.28922 8.29691 4.03544 8.29691 3.78163C8.29691 1.9745 9.75884 0.502441 11.5761 0.502441C12.5202 0.502441 13.373 0.898379 13.972 1.53797C14.7131 1.39585 15.4238 1.12172 16.0532 0.746098C15.8096 1.50754 15.2918 2.14713 14.6116 2.55319C15.2715 2.48216 15.9111 2.29938 16.4999 2.0456C16.0533 2.69532 15.4949 3.27397 14.8553 3.741Z" fill="inherit"/>
</svg>
