<?xml version="1.0" encoding="utf-8"?><svg width="76" height="52" viewBox="0 0 76 52" xmlns="http://www.w3.org/2000/svg" xmlns:xlink="http://www.w3.org/1999/xlink"><svg width="10" height="12" viewBox="0 0 10 12" fill="inherit" id="arrow-bottom" x="61" y="15" xmlns="http://www.w3.org/2000/svg"><path d="M8.912 5.402l-3.7 3.71a.3.3 0 0 1-.425 0l-3.7-3.71a.3.3 0 0 1 0-.425l.49-.49a.297.297 0 0 1 .428.005L4.347 6.92V.7a.3.3 0 0 1 .3-.3h.7a.3.3 0 0 1 .3.3v6.22L7.99 4.492a.301.301 0 0 1 .427-.005l.49.49a.296.296 0 0 1 .005.425zM9.5 10.3h-9a.3.3 0 0 0-.3.3v.7a.3.3 0 0 0 .3.3h9a.3.3 0 0 0 .3-.3v-.7a.3.3 0 0 0-.3-.3z"/></svg><svg width="9" height="10" viewBox="0 0 9 10" fill="inherit" id="arrow-down" x="67" y="27" xmlns="http://www.w3.org/2000/svg"><path d="M.185 5.412l4.133 4.133 4.134-4.133-.874-.878-2.625 2.63V.774h-1.27v6.388l-2.629-2.63-.87.879z"/></svg><svg width="16" height="16" viewBox="0 0 16 16" fill="inherit" id="arrow-right" x="44" y="14" xmlns="http://www.w3.org/2000/svg"><g clip-path="url(#ca)"><path d="M8.112 2.893l-.464.464a.281.281 0 0 0 0 .398l3.636 3.636H3.28A.281.281 0 0 0 3 7.67v.657c0 .156.126.281.281.281h8.003l-3.636 3.636a.281.281 0 0 0 0 .398l.464.464c.11.11.288.11.397 0L13.418 8.2a.281.281 0 0 0 0-.398L8.509 2.893a.281.281 0 0 0-.397 0z"/></g><defs><clipPath id="ca"><path transform="translate(3 2)" d="M0 0h10.5v12H0z"/></clipPath></defs></svg><svg width="20" height="20" viewBox="0 0 20 20" fill="inherit" id="check" x="24" xmlns="http://www.w3.org/2000/svg"><path d="M15.62 4.608l-8.22 8.22-3.02-3.02a.375.375 0 0 0-.53 0l-.885.884a.375.375 0 0 0 0 .53l4.17 4.17a.375.375 0 0 0 .53 0l9.37-9.37a.375.375 0 0 0 0-.53l-.885-.884a.375.375 0 0 0-.53 0z"/></svg><svg width="6" height="12" viewBox="0 0 6 12" fill="inherit" id="chevron-right" x="61" y="27" xmlns="http://www.w3.org/2000/svg"><path d="M.58.893l-.465.464a.281.281 0 0 0 0 .398L4.35 6 .115 10.245a.281.281 0 0 0 0 .398l.464.464c.11.11.288.11.398 0l4.908-4.908a.281.281 0 0 0 0-.398L.977.893a.281.281 0 0 0-.398 0z"/></svg><svg width="14" height="16" viewBox="0 0 14 16" fill="inherit" id="clipboard" y="36" xmlns="http://www.w3.org/2000/svg"><path d="M13.56 2.06L11.94.44A1.5 1.5 0 0 0 10.878 0H5.5A1.5 1.5 0 0 0 4 1.5V3H1.5A1.5 1.5 0 0 0 0 4.5v10A1.5 1.5 0 0 0 1.5 16h7a1.5 1.5 0 0 0 1.5-1.5V13h2.5a1.5 1.5 0 0 0 1.5-1.5V3.121a1.5 1.5 0 0 0-.44-1.06zM8.313 14.5H1.689a.188.188 0 0 1-.188-.188V4.688a.187.187 0 0 1 .188-.188H4v7A1.5 1.5 0 0 0 5.5 13h3v1.313a.188.188 0 0 1-.188.187zm4-3H5.689a.188.188 0 0 1-.188-.188V1.688a.187.187 0 0 1 .188-.188H9v2.75c0 .414.336.75.75.75h2.75v6.313a.188.188 0 0 1-.188.187zm.188-8h-2v-2h.301c.05 0 .097.02.133.055l1.511 1.511a.187.187 0 0 1 .055.133V3.5z"/></svg><svg width="15" height="14" viewBox="0 0 15 14" fill="inherit" id="linkedin" x="14" y="36" xmlns="http://www.w3.org/2000/svg"><path d="M3.634 14H.73V4.653h2.903V14zM2.18 3.378C1.253 3.378.5 2.61.5 1.681a1.68 1.68 0 1 1 3.362 0c0 .929-.753 1.697-1.681 1.697zM14.497 14H11.6V9.45c0-1.084-.022-2.475-1.51-2.475-1.508 0-1.74 1.178-1.74 2.397V14h-2.9V4.653h2.785v1.275h.04c.388-.734 1.334-1.51 2.747-1.51 2.937 0 3.477 1.935 3.477 4.448V14h-.003z"/></svg><svg width="24" height="24" viewBox="0 0 24 24" fill="none" id="logo" xmlns="http://www.w3.org/2000/svg"><path d="M12 17.454a5.455 5.455 0 1 0 0-10.909 5.455 5.455 0 0 0 0 10.91z" fill="#71D970"/><path d="M12 3.273A1.636 1.636 0 1 0 12 0a1.636 1.636 0 0 0 0 3.273zM12 24a1.636 1.636 0 1 0 0-3.273A1.636 1.636 0 0 0 12 24zM20.727 12A1.636 1.636 0 1 0 24 12a1.636 1.636 0 0 0-3.273 0zM0 12a1.636 1.636 0 1 0 3.273 0A1.636 1.636 0 0 0 0 12zM17.84 5.514a1.636 1.636 0 1 0 2.19-2.432 1.636 1.636 0 0 0-2.19 2.432zM3.97 20.918a1.636 1.636 0 1 0 2.19-2.432 1.636 1.636 0 0 0-2.19 2.432zM18.171 18.171a1.636 1.636 0 1 0 2.315 2.314 1.636 1.636 0 0 0-2.315-2.314zM3.515 3.515A1.636 1.636 0 1 0 5.83 5.829a1.636 1.636 0 0 0-2.314-2.314z" fill="#1C1C1E"/></svg><svg width="17" height="12" viewBox="0 0 17 12" fill="inherit" id="medium" y="24" xmlns="http://www.w3.org/2000/svg"><path d="M2.734 2.447a.59.59 0 0 0-.19-.494l-1.41-1.7V0h4.382l3.387 7.428L11.881 0h4.178v.253L14.854 1.41a.352.352 0 0 0-.134.338v8.5a.352.352 0 0 0 .134.337l1.178 1.157v.253h-5.928v-.253l1.222-1.185c.119-.118.119-.156.119-.337V3.35l-3.397 8.622h-.46L3.638 3.35v5.778a.787.787 0 0 0 .22.663l1.587 1.925v.253h-4.5v-.25L2.53 9.79a.761.761 0 0 0 .203-.663V2.447z"/></svg><svg width="15" height="15" viewBox="0 0 15 15" fill="inherit" id="reddit" x="61" xmlns="http://www.w3.org/2000/svg"><path d="M13.26 6.36c-.47 0-.882.193-1.185.496-1.116-.771-2.619-1.268-4.284-1.321l.865-3.9 2.756.618c0 .675.55 1.225 1.225 1.225.688 0 1.241-.565 1.241-1.24s-.55-1.24-1.24-1.24c-.482 0-.897.29-1.104.687L8.491 1.01c-.154-.041-.304.068-.344.221l-.95 4.3c-1.653.07-3.14.566-4.26 1.338a1.66 1.66 0 0 0-1.2-.51C0 6.36-.569 8.692 1.022 9.489c-.056.247-.081.51-.081.772C.94 12.878 3.89 15 7.512 15c3.638 0 6.588-2.122 6.588-4.74a2.98 2.98 0 0 0-.097-.785c1.56-.8.984-3.115-.744-3.115zM3.543 9.653c0-.687.55-1.24 1.24-1.24.675 0 1.225.55 1.225 1.24 0 .675-.55 1.225-1.225 1.225a1.23 1.23 0 0 1-1.24-1.225zm6.697 2.922c-1.138 1.138-4.347 1.138-5.485 0-.125-.11-.125-.303 0-.428a.3.3 0 0 1 .413 0c.868.89 3.75.906 4.656 0a.3.3 0 0 1 .412 0c.129.125.129.319.004.428zm-.025-1.694c-.675 0-1.225-.55-1.225-1.225a1.232 1.232 0 1 1 1.225 1.225z"/></svg><svg width="17" height="14" viewBox="0 0 17 14" fill="inherit" id="twitter" x="44" xmlns="http://www.w3.org/2000/svg"><path d="M14.855 3.741c.01.142.01.284.01.426 0 4.335-3.299 9.33-9.33 9.33A9.266 9.266 0 0 1 .5 12.025c.264.03.518.04.792.04a6.568 6.568 0 0 0 4.07-1.4A3.285 3.285 0 0 1 2.298 8.39c.203.03.406.05.62.05.294 0 .588-.04.862-.111a3.28 3.28 0 0 1-2.63-3.218V5.07c.437.244.945.396 1.483.416a3.277 3.277 0 0 1-1.462-2.73c0-.61.162-1.168.447-1.656a9.321 9.321 0 0 0 6.761 3.432 3.702 3.702 0 0 1-.081-.751 3.278 3.278 0 0 1 3.28-3.28c.943 0 1.796.396 2.395 1.036a6.455 6.455 0 0 0 2.081-.792 3.27 3.27 0 0 1-1.441 1.807c.66-.07 1.3-.254 1.888-.507a7.048 7.048 0 0 1-1.645 1.695z"/></svg></svg>
