<?xml version="1.0" encoding="utf-8"?><svg width="52" height="46" viewBox="0 0 52 46" xmlns="http://www.w3.org/2000/svg" xmlns:xlink="http://www.w3.org/1999/xlink"><svg width="10" height="12" fill="inherit" viewBox="0 0 10 12" id="arrow-bottom" x="36" y="16" xmlns="http://www.w3.org/2000/svg"><path d="M8.912 5.402l-3.7 3.71a.3.3 0 01-.425 0l-3.7-3.71a.3.3 0 010-.425l.49-.49a.297.297 0 01.428.005L4.347 6.92V.7a.3.3 0 01.3-.3h.7a.3.3 0 01.3.3v6.22L7.99 4.492a.301.301 0 01.427-.005l.49.49a.296.296 0 01.005.425zM9.5 10.3h-9a.3.3 0 00-.3.3v.7a.3.3 0 00.3.3h9a.3.3 0 00.3-.3v-.7a.3.3 0 00-.3-.3z"/></svg><svg width="9" height="10" fill="inherit" viewBox="0 0 9 10" id="arrow-down" y="36" xmlns="http://www.w3.org/2000/svg"><path d="M.185 5.412l4.133 4.133 4.134-4.133-.874-.878-2.625 2.63V.774h-1.27v6.388l-2.629-2.63-.87.879z"/></svg><svg width="16" height="16" fill="inherit" viewBox="0 0 16 16" id="arrow-right" x="20" xmlns="http://www.w3.org/2000/svg"><g clip-path="url(#cclip0)"><path d="M8.112 2.893l-.464.464a.281.281 0 000 .398l3.636 3.636H3.28A.281.281 0 003 7.67v.657c0 .156.126.281.281.281h8.003l-3.636 3.636a.281.281 0 000 .398l.464.464c.11.11.288.11.397 0L13.418 8.2a.281.281 0 000-.398L8.509 2.893a.281.281 0 00-.397 0z"/></g><defs><clipPath id="cclip0"><path transform="translate(3 2)" d="M0 0h10.5v12H0z"/></clipPath></defs></svg><svg width="20" height="20" fill="inherit" viewBox="0 0 20 20" id="check" xmlns="http://www.w3.org/2000/svg"><path d="M15.62 4.608l-8.22 8.22-3.02-3.02a.375.375 0 00-.53 0l-.885.884a.375.375 0 000 .53l4.17 4.17a.375.375 0 00.53 0l9.37-9.37a.375.375 0 000-.53l-.885-.884a.375.375 0 00-.53 0z"/></svg><svg width="6" height="12" fill="inherit" viewBox="0 0 6 12" id="chevron-right" x="46" y="16" xmlns="http://www.w3.org/2000/svg"><path d="M.58.893l-.465.464a.281.281 0 000 .398L4.35 6 .115 10.245a.281.281 0 000 .398l.464.464c.11.11.288.11.398 0l4.908-4.908a.281.281 0 000-.398L.977.893a.281.281 0 00-.398 0z"/></svg><svg width="14" height="16" fill="inherit" viewBox="0 0 14 16" id="clipboard" y="20" xmlns="http://www.w3.org/2000/svg"><path d="M13.56 2.06L11.94.44A1.5 1.5 0 0010.878 0H5.5A1.5 1.5 0 004 1.5V3H1.5A1.5 1.5 0 000 4.5v10A1.5 1.5 0 001.5 16h7a1.5 1.5 0 001.5-1.5V13h2.5a1.5 1.5 0 001.5-1.5V3.121a1.5 1.5 0 00-.44-1.06zM8.313 14.5H1.689a.188.188 0 01-.188-.188V4.688a.187.187 0 01.188-.188H4v7A1.5 1.5 0 005.5 13h3v1.313a.188.188 0 01-.188.187zm4-3H5.689a.188.188 0 01-.188-.188V1.688a.187.187 0 01.188-.188H9v2.75c0 .414.336.75.75.75h2.75v6.313a.188.188 0 01-.188.187zm.188-8h-2v-2h.301c.05 0 .097.02.133.055l1.511 1.511a.187.187 0 01.055.133V3.5z"/></svg><svg width="10" height="10" fill="inherit" viewBox="0 0 10 10" id="close-blank" x="9" y="36" xmlns="http://www.w3.org/2000/svg"><path d="M5.649 4.8l2.563-2.564.53-.529a.2.2 0 000-.283L8.174.86a.2.2 0 00-.282 0L4.8 3.95 1.707.858a.2.2 0 00-.282 0l-.566.566a.2.2 0 000 .283L3.95 4.8.86 7.893a.2.2 0 000 .282l.565.566a.2.2 0 00.283 0L4.8 5.65l2.564 2.563.529.53a.2.2 0 00.282 0l.566-.567a.2.2 0 000-.282L5.65 4.8z"/></svg><svg width="16" height="16" fill="none" viewBox="0 0 16 16" id="night" x="14" y="20" xmlns="http://www.w3.org/2000/svg"><path fill="gray" d="M10 1l-.5-1L9 1l-1 .5L9 2l.5 1 .5-1 1-.5-1-.5zm4.334 4.666L13.5 4l-.834 1.666L11 6.5l1.666.834L13.5 9l.834-1.666L16 6.5l-1.666-.834z"/><path d="M10.381 13.325c.253-.05.435.25.269.453A5.974 5.974 0 015.994 16 5.996 5.996 0 010 10c0-3.75 3.397-6.581 7.094-5.9.256.05.315.394.087.522a4.697 4.697 0 00-2.378 4.087c0 2.938 2.669 5.17 5.578 4.616z" fill="#000"/></svg><svg width="16" height="16" fill="none" viewBox="0 0 16 16" id="sunny" x="36" xmlns="http://www.w3.org/2000/svg"><path opacity=".4" d="M15.7 7.516l-2.959-1.479L13.788 2.9a.54.54 0 00-.684-.684L9.966 3.262 8.485.3a.541.541 0 00-.969 0L6.038 3.26 2.897 2.212a.54.54 0 00-.684.684l1.046 3.137L.3 7.516a.541.541 0 000 .968l2.96 1.479-1.047 3.14a.54.54 0 00.684.684l3.138-1.046L7.513 15.7a.54.54 0 00.969 0l1.478-2.96 3.138 1.047a.54.54 0 00.684-.684l-1.047-3.137 2.96-1.478a.541.541 0 00.006-.972zm-4.871 3.312a4.004 4.004 0 01-5.656 0 4.004 4.004 0 010-5.656 4.004 4.004 0 015.656 0 4.004 4.004 0 010 5.656z" fill="#fff"/><path d="M11 8a3 3 0 11-6 0 3 3 0 016 0z" fill="#fff"/></svg></svg>
